<svg width="96" height="96" viewBox="0 0 96 96" fill="none" xmlns="http://www.w3.org/2000/svg">
  <defs>
    <linearGradient id="bg" x1="16" y1="12" x2="78" y2="82" gradientUnits="userSpaceOnUse">
      <stop offset="0" stop-color="#EFF6FF"/>
      <stop offset="1" stop-color="#DBEAFE"/>
    </linearGradient>
    <linearGradient id="accent" x1="31" y1="22" x2="63" y2="70" gradientUnits="userSpaceOnUse">
      <stop offset="0" stop-color="#3B82F6"/>
      <stop offset="1" stop-color="#1D4ED8"/>
    </linearGradient>
    <filter id="shadow" x="0" y="0" width="96" height="96" filterUnits="userSpaceOnUse" color-interpolation-filters="sRGB">
      <feFlood flood-opacity="0" result="BackgroundImageFix"/>
      <feColorMatrix in="SourceAlpha" type="matrix" values="0 0 0 0 0 0 0 0 0 0 0 0 0 0 0 0 0 0 127 0" result="hardAlpha"/>
      <feOffset dy="8"/>
      <feGaussianBlur stdDeviation="8"/>
      <feColorMatrix type="matrix" values="0 0 0 0 0.117647 0 0 0 0 0.305882 0 0 0 0 0.847059 0 0 0 0.16 0"/>
      <feBlend mode="normal" in2="BackgroundImageFix" result="effect1_dropShadow_1_1"/>
      <feBlend mode="normal" in="SourceGraphic" in2="effect1_dropShadow_1_1" result="shape"/>
    </filter>
  </defs>

  <g filter="url(#shadow)">
    <circle cx="48" cy="40" r="32" fill="url(#bg)"/>
    <circle cx="48" cy="40" r="31.25" stroke="white" stroke-opacity="0.85" stroke-width="1.5"/>
  </g>

  <g>
    <rect x="30" y="26" width="24" height="28" rx="4" fill="url(#accent)"/>
    <rect x="53" y="34" width="13" height="20" rx="3" fill="url(#accent)" opacity="0.88"/>
    <rect x="38" y="46" width="8" height="8" rx="2" fill="#DBEAFE"/>
    <rect x="35" y="31" width="4" height="4" rx="1" fill="#DBEAFE"/>
    <rect x="43" y="31" width="4" height="4" rx="1" fill="#DBEAFE"/>
    <rect x="35" y="38" width="4" height="4" rx="1" fill="#DBEAFE"/>
    <rect x="43" y="38" width="4" height="4" rx="1" fill="#DBEAFE"/>
    <rect x="57" y="39" width="3" height="3" rx="0.8" fill="#DBEAFE"/>
    <rect x="57" y="45" width="3" height="3" rx="0.8" fill="#DBEAFE"/>
    <path d="M28 58H68" stroke="#93C5FD" stroke-width="2.5" stroke-linecap="round"/>
  </g>
</svg>
